<?xml version="1.0" standalone="no"?>
<!DOCTYPE svg PUBLIC "-//W3C//DTD SVG 20010904//EN"
 "http://www.w3.org/TR/2001/REC-SVG-20010904/DTD/svg10.dtd">
<svg version="1.0" xmlns="http://www.w3.org/2000/svg"
 width="114.000000pt" height="114.000000pt" viewBox="0 0 114.000000 114.000000"
 preserveAspectRatio="xMidYMid meet">
<metadata>
Created by potrace 1.11, written by Peter Selinger 2001-2013
</metadata>
<g transform="translate(0.000000,114.000000) scale(0.100000,-0.100000)"
fill="#000000" stroke="none">
<path d="M0 570 l0 -570 570 0 570 0 0 570 0 570 -570 0 -570 0 0 -570z m507
294 c40 -30 63 -80 63 -142 0 -62 -18 -101 -61 -135 l-31 -24 26 -7 c40 -10
58 -57 64 -166 2 -57 10 -104 18 -117 l14 -23 -69 0 c-44 0 -73 5 -77 12 -4 7
-9 51 -11 98 -6 144 -16 160 -94 160 l-49 0 0 -135 0 -135 -65 0 -65 0 0 321
0 321 154 -4 c137 -3 158 -5 183 -24z m463 -228 c0 -162 -4 -265 -11 -287 -26
-76 -100 -116 -200 -107 -85 8 -132 59 -145 156 l-7 52 60 0 60 0 6 -46 c6
-54 16 -66 53 -66 51 -1 54 13 54 294 l0 258 65 0 65 0 0 -254z"/>
<path d="M300 705 l0 -98 51 5 c68 7 91 30 91 93 0 61 -21 82 -89 91 l-53 7 0
-98z"/>
</g>
</svg>
