<?xml version="1.0" encoding="utf-8"?>
<!-- Generator: Adobe Illustrator 26.3.1, SVG Export Plug-In . SVG Version: 6.00 Build 0)  -->
<svg version="1.1" id="Layer_1" xmlns="http://www.w3.org/2000/svg" xmlns:xlink="http://www.w3.org/1999/xlink" x="0px" y="0px"
	 viewBox="0 0 51 44" style="enable-background:new 0 0 51 44;" xml:space="preserve">
<g id="RJ">
	<path fill="white" fill-rule="evenodd" clip-rule="evenodd" d="M44.9,11.2c3.7,2,6.3,6.7,6.1,12s-3,9.6-6.9,11.1c2.7-2.3,4.6-6.5,4.8-11.2
			C49.1,18.3,47.5,13.9,44.9,11.2z M2,22.8c0.1,4.9,1.9,9.1,4.6,11.5C2.8,32.7,0.1,28.2,0,22.9s2.5-9.8,6.3-11.7
			C3.7,13.8,2,18.1,2,22.8z M42.4,25.7c0-11.5-7.5-20.8-16.7-20.8S9,14.2,9,25.7c0,3,0.5,5.9,1.5,8.5c-1.7-3.2-2.6-7-2.6-11.1
			c0-12.1,7.9-22,17.7-22s17.7,9.8,17.7,22c0,4.1-0.9,7.9-2.4,11.1C41.9,31.6,42.4,28.8,42.4,25.7z M5.9,22
			c0,12.1,7.9,21.8,17.6,21.8c0.3,0,0.7,0,1,0c-0.8,0.1-1.6,0.2-2.4,0.2c-9.8,0-17.7-9.8-17.7-22S12.3,0,22.1,0
			c0.8,0,1.6,0.1,2.4,0.2c-0.3,0-0.7,0-1,0C13.8,0.2,5.9,9.9,5.9,22z M45.3,22c0-12.1-7.9-21.8-17.6-21.8c-0.3,0-0.7,0-1,0
			C27.5,0.1,28.3,0,29.1,0c9.8,0,17.7,9.8,17.7,22s-7.9,22-17.7,22c-0.8,0-1.6-0.1-2.4-0.2c0.3,0,0.7,0,1,0
			C37.4,43.8,45.3,34.1,45.3,22z M25.6,34.4c4.3,0,8-1.7,9.5-4.1c-1.1,2.9-4.9,5.1-9.5,5.1s-8.4-2.2-9.5-5.1
			C17.6,32.7,21.3,34.4,25.6,34.4z"/>
</g>
</svg>
